<svg width="1440" height="685" viewBox="0 0 1440 685" fill="none" xmlns="http://www.w3.org/2000/svg">
<path fill-rule="evenodd" clip-rule="evenodd" d="M1650.92 477.005L1574.93 431.556C1498.94 386.106 1346.96 295.207 1220.86 283.663C1094.77 272.12 994.565 339.931 899.539 423.614C804.513 507.297 714.665 606.85 596.339 619.113C478.013 631.376 331.208 556.348 207.704 552.74C84.2001 549.132 -16.0036 616.944 -66.1056 650.849L-116.207 684.755L-162.808 541.916L-107.528 523.881C-52.2486 505.846 58.3108 469.777 168.87 433.707C279.43 397.638 389.989 361.568 500.549 325.499C611.108 289.429 721.668 253.36 832.227 217.29C942.787 181.221 1053.35 145.151 1163.91 109.082C1274.47 73.0123 1385.02 36.9428 1440.3 18.908L1495.58 0.873262L1650.92 477.005Z" fill="#FEFBF6"/>
</svg>
